<svg width="208" height="30" viewBox="0 0 208 30" fill="none" xmlns="http://www.w3.org/2000/svg">
<path d="M46.2188 24V21.9922L54.2031 10.7891H46.2031V8H58.4531V10.0078L50.4609 21.2109H58.4688V24H46.2188ZM66.4238 24.2344C65.2103 24.2344 64.1608 23.9766 63.2754 23.4609C62.3952 22.9401 61.7155 22.2161 61.2363 21.2891C60.7572 20.3568 60.5176 19.276 60.5176 18.0469C60.5176 16.8073 60.7572 15.724 61.2363 14.7969C61.7155 13.8646 62.3952 13.1406 63.2754 12.625C64.1608 12.1042 65.2103 11.8438 66.4238 11.8438C67.6374 11.8438 68.6842 12.1042 69.5645 12.625C70.4499 13.1406 71.1322 13.8646 71.6113 14.7969C72.0905 15.724 72.3301 16.8073 72.3301 18.0469C72.3301 19.276 72.0905 20.3568 71.6113 21.2891C71.1322 22.2161 70.4499 22.9401 69.5645 23.4609C68.6842 23.9766 67.6374 24.2344 66.4238 24.2344ZM66.4395 21.6562C66.9915 21.6562 67.4525 21.5 67.8223 21.1875C68.1921 20.8698 68.4707 20.4375 68.6582 19.8906C68.8509 19.3437 68.9473 18.7214 68.9473 18.0234C68.9473 17.3255 68.8509 16.7031 68.6582 16.1562C68.4707 15.6094 68.1921 15.1771 67.8223 14.8594C67.4525 14.5417 66.9915 14.3828 66.4395 14.3828C65.8822 14.3828 65.4134 14.5417 65.0332 14.8594C64.6582 15.1771 64.3743 15.6094 64.1816 16.1562C63.9941 16.7031 63.9004 17.3255 63.9004 18.0234C63.9004 18.7214 63.9941 19.3437 64.1816 19.8906C64.3743 20.4375 64.6582 20.8698 65.0332 21.1875C65.4134 21.5 65.8822 21.6562 66.4395 21.6562ZM79.916 24.2344C78.7025 24.2344 77.653 23.9766 76.7676 23.4609C75.8874 22.9401 75.2077 22.2161 74.7285 21.2891C74.2493 20.3568 74.0098 19.276 74.0098 18.0469C74.0098 16.8073 74.2493 15.724 74.7285 14.7969C75.2077 13.8646 75.8874 13.1406 76.7676 12.625C77.653 12.1042 78.7025 11.8438 79.916 11.8438C81.1296 11.8438 82.1764 12.1042 83.0566 12.625C83.9421 13.1406 84.6243 13.8646 85.1035 14.7969C85.5827 15.724 85.8223 16.8073 85.8223 18.0469C85.8223 19.276 85.5827 20.3568 85.1035 21.2891C84.6243 22.2161 83.9421 22.9401 83.0566 23.4609C82.1764 23.9766 81.1296 24.2344 79.916 24.2344ZM79.9316 21.6562C80.4837 21.6562 80.9447 21.5 81.3145 21.1875C81.6842 20.8698 81.9629 20.4375 82.1504 19.8906C82.3431 19.3437 82.4395 18.7214 82.4395 18.0234C82.4395 17.3255 82.3431 16.7031 82.1504 16.1562C81.9629 15.6094 81.6842 15.1771 81.3145 14.8594C80.9447 14.5417 80.4837 14.3828 79.9316 14.3828C79.3743 14.3828 78.9056 14.5417 78.5254 14.8594C78.1504 15.1771 77.8665 15.6094 77.6738 16.1562C77.4863 16.7031 77.3926 17.3255 77.3926 18.0234C77.3926 18.7214 77.4863 19.3437 77.6738 19.8906C77.8665 20.4375 78.1504 20.8698 78.5254 21.1875C78.9056 21.5 79.3743 21.6562 79.9316 21.6562ZM91.3145 8V24H87.9863V8H91.3145ZM104.807 24H99.1348V8H104.854C106.463 8 107.848 8.32031 109.01 8.96094C110.171 9.59635 111.064 10.5104 111.689 11.7031C112.32 12.8958 112.635 14.3229 112.635 15.9844C112.635 17.651 112.32 19.0833 111.689 20.2812C111.064 21.4792 110.166 22.3984 108.994 23.0391C107.827 23.6797 106.432 24 104.807 24ZM102.518 21.1016H104.666C105.666 21.1016 106.507 20.9245 107.189 20.5703C107.877 20.2109 108.393 19.6562 108.736 18.9062C109.085 18.151 109.26 17.1771 109.26 15.9844C109.26 14.8021 109.085 13.8359 108.736 13.0859C108.393 12.3359 107.88 11.7839 107.197 11.4297C106.515 11.0755 105.674 10.8984 104.674 10.8984H102.518V21.1016ZM120.547 24.2344C119.313 24.2344 118.25 23.9844 117.359 23.4844C116.474 22.9792 115.792 22.2656 115.312 21.3437C114.833 20.4167 114.594 19.3203 114.594 18.0547C114.594 16.8203 114.833 15.737 115.312 14.8047C115.792 13.8724 116.466 13.1458 117.336 12.625C118.211 12.1042 119.237 11.8438 120.414 11.8438C121.206 11.8438 121.943 11.9714 122.625 12.2266C123.313 12.4766 123.911 12.8542 124.422 13.3594C124.938 13.8646 125.339 14.5 125.625 15.2656C125.911 16.026 126.055 16.9167 126.055 17.9375V18.8516H115.922V16.7891H122.922C122.922 16.3099 122.818 15.8854 122.609 15.5156C122.401 15.1458 122.112 14.8568 121.742 14.6484C121.378 14.4349 120.953 14.3281 120.469 14.3281C119.964 14.3281 119.516 14.4453 119.125 14.6797C118.74 14.9089 118.438 15.2187 118.219 15.6094C118 15.9948 117.888 16.4245 117.883 16.8984V18.8594C117.883 19.4531 117.992 19.9661 118.211 20.3984C118.435 20.8307 118.75 21.1641 119.156 21.3984C119.563 21.6328 120.044 21.75 120.602 21.75C120.971 21.75 121.31 21.6979 121.617 21.5938C121.924 21.4896 122.188 21.3333 122.406 21.125C122.625 20.9167 122.792 20.6615 122.906 20.3594L125.984 20.5625C125.828 21.3021 125.508 21.9479 125.023 22.5C124.544 23.0469 123.924 23.474 123.164 23.7813C122.409 24.0833 121.536 24.2344 120.547 24.2344ZM139.092 12L134.896 24H131.146L126.951 12H130.467L132.959 20.5859H133.084L135.568 12H139.092ZM145.877 24.2344C144.643 24.2344 143.58 23.9844 142.689 23.4844C141.804 22.9792 141.122 22.2656 140.643 21.3437C140.163 20.4167 139.924 19.3203 139.924 18.0547C139.924 16.8203 140.163 15.737 140.643 14.8047C141.122 13.8724 141.796 13.1458 142.666 12.625C143.541 12.1042 144.567 11.8438 145.744 11.8438C146.536 11.8438 147.273 11.9714 147.955 12.2266C148.643 12.4766 149.242 12.8542 149.752 13.3594C150.268 13.8646 150.669 14.5 150.955 15.2656C151.242 16.026 151.385 16.9167 151.385 17.9375V18.8516H141.252V16.7891H148.252C148.252 16.3099 148.148 15.8854 147.939 15.5156C147.731 15.1458 147.442 14.8568 147.072 14.6484C146.708 14.4349 146.283 14.3281 145.799 14.3281C145.294 14.3281 144.846 14.4453 144.455 14.6797C144.07 14.9089 143.768 15.2187 143.549 15.6094C143.33 15.9948 143.218 16.4245 143.213 16.8984V18.8594C143.213 19.4531 143.322 19.9661 143.541 20.3984C143.765 20.8307 144.08 21.1641 144.486 21.3984C144.893 21.6328 145.374 21.75 145.932 21.75C146.301 21.75 146.64 21.6979 146.947 21.5938C147.255 21.4896 147.518 21.3333 147.736 21.125C147.955 20.9167 148.122 20.6615 148.236 20.3594L151.314 20.5625C151.158 21.3021 150.838 21.9479 150.354 22.5C149.874 23.0469 149.255 23.474 148.494 23.7813C147.739 24.0833 146.867 24.2344 145.877 24.2344ZM156.885 8V24H153.557V8H156.885ZM164.973 24.2344C163.759 24.2344 162.71 23.9766 161.824 23.4609C160.944 22.9401 160.264 22.2161 159.785 21.2891C159.306 20.3568 159.066 19.276 159.066 18.0469C159.066 16.8073 159.306 15.724 159.785 14.7969C160.264 13.8646 160.944 13.1406 161.824 12.625C162.71 12.1042 163.759 11.8438 164.973 11.8438C166.186 11.8438 167.233 12.1042 168.113 12.625C168.999 13.1406 169.681 13.8646 170.16 14.7969C170.639 15.724 170.879 16.8073 170.879 18.0469C170.879 19.276 170.639 20.3568 170.16 21.2891C169.681 22.2161 168.999 22.9401 168.113 23.4609C167.233 23.9766 166.186 24.2344 164.973 24.2344ZM164.988 21.6562C165.54 21.6562 166.001 21.5 166.371 21.1875C166.741 20.8698 167.02 20.4375 167.207 19.8906C167.4 19.3437 167.496 18.7214 167.496 18.0234C167.496 17.3255 167.4 16.7031 167.207 16.1562C167.02 15.6094 166.741 15.1771 166.371 14.8594C166.001 14.5417 165.54 14.3828 164.988 14.3828C164.431 14.3828 163.962 14.5417 163.582 14.8594C163.207 15.1771 162.923 15.6094 162.73 16.1562C162.543 16.7031 162.449 17.3255 162.449 18.0234C162.449 18.7214 162.543 19.3437 162.73 19.8906C162.923 20.4375 163.207 20.8698 163.582 21.1875C163.962 21.5 164.431 21.6562 164.988 21.6562ZM173.043 28.5V12H176.324V14.0156H176.473C176.618 13.6927 176.829 13.3646 177.105 13.0312C177.387 12.6927 177.751 12.4115 178.199 12.1875C178.652 11.9583 179.215 11.8438 179.887 11.8438C180.762 11.8438 181.569 12.0729 182.309 12.5313C183.048 12.9844 183.639 13.6693 184.082 14.5859C184.525 15.4974 184.746 16.6406 184.746 18.0156C184.746 19.3542 184.53 20.4844 184.098 21.4062C183.671 22.3229 183.087 23.0182 182.348 23.4922C181.613 23.9609 180.79 24.1953 179.879 24.1953C179.233 24.1953 178.684 24.0885 178.23 23.875C177.783 23.6615 177.415 23.3932 177.129 23.0703C176.842 22.7422 176.624 22.4115 176.473 22.0781H176.371V28.5H173.043ZM176.301 18C176.301 18.7135 176.4 19.3359 176.598 19.8672C176.796 20.3984 177.082 20.8125 177.457 21.1094C177.832 21.401 178.288 21.5469 178.824 21.5469C179.366 21.5469 179.824 21.3984 180.199 21.1016C180.574 20.7995 180.858 20.3828 181.051 19.8516C181.249 19.3151 181.348 18.6979 181.348 18C181.348 17.3073 181.251 16.6979 181.059 16.1719C180.866 15.6458 180.582 15.2344 180.207 14.9375C179.832 14.6406 179.371 14.4922 178.824 14.4922C178.283 14.4922 177.824 14.6354 177.449 14.9219C177.079 15.2083 176.796 15.6146 176.598 16.1406C176.4 16.6667 176.301 17.2865 176.301 18ZM192.434 24.2344C191.199 24.2344 190.137 23.9844 189.246 23.4844C188.361 22.9792 187.678 22.2656 187.199 21.3437C186.72 20.4167 186.48 19.3203 186.48 18.0547C186.48 16.8203 186.72 15.737 187.199 14.8047C187.678 13.8724 188.353 13.1458 189.223 12.625C190.098 12.1042 191.124 11.8438 192.301 11.8438C193.092 11.8438 193.829 11.9714 194.512 12.2266C195.199 12.4766 195.798 12.8542 196.309 13.3594C196.824 13.8646 197.225 14.5 197.512 15.2656C197.798 16.026 197.941 16.9167 197.941 17.9375V18.8516H187.809V16.7891H194.809C194.809 16.3099 194.704 15.8854 194.496 15.5156C194.288 15.1458 193.999 14.8568 193.629 14.6484C193.264 14.4349 192.84 14.3281 192.355 14.3281C191.85 14.3281 191.402 14.4453 191.012 14.6797C190.626 14.9089 190.324 15.2187 190.105 15.6094C189.887 15.9948 189.775 16.4245 189.77 16.8984V18.8594C189.77 19.4531 189.879 19.9661 190.098 20.3984C190.322 20.8307 190.637 21.1641 191.043 21.3984C191.449 21.6328 191.931 21.75 192.488 21.75C192.858 21.75 193.197 21.6979 193.504 21.5938C193.811 21.4896 194.074 21.3333 194.293 21.125C194.512 20.9167 194.678 20.6615 194.793 20.3594L197.871 20.5625C197.715 21.3021 197.395 21.9479 196.91 22.5C196.431 23.0469 195.811 23.474 195.051 23.7813C194.296 24.0833 193.423 24.2344 192.434 24.2344ZM200.113 24V12H203.34V14.0937H203.465C203.684 13.349 204.051 12.7865 204.566 12.4063C205.082 12.0208 205.676 11.8281 206.348 11.8281C206.514 11.8281 206.694 11.8385 206.887 11.8594C207.079 11.8802 207.249 11.9089 207.395 11.9453V14.8984C207.238 14.8516 207.022 14.8099 206.746 14.7734C206.47 14.737 206.217 14.7188 205.988 14.7188C205.499 14.7188 205.061 14.8255 204.676 15.0391C204.296 15.2474 203.993 15.5391 203.77 15.9141C203.551 16.2891 203.441 16.7214 203.441 17.2109V24H200.113Z" fill="white"/>
<path fill-rule="evenodd" clip-rule="evenodd" d="M16.14 14.0259L7.8922 7.83804L7.70286 8.09041L0.221436 17.3725L1.00002 18L8.07343 9.22416L9.9794 10.6541L4.24074 17.3492L5 18L10.781 11.2555L12.4766 12.5276L8.24874 17.34L9 18L13.2789 13.1295L15.5398 14.8258L16.14 14.0259Z" fill="#FF6F61"/>
<path fill-rule="evenodd" clip-rule="evenodd" d="M19 16.9717L27.2467 23.1554L27.4305 22.9105L34.9169 13.6273L34.1381 13L27.0657 21.7699L25.1603 20.3411L30.898 13.6506L30.1386 13L24.3585 19.7398L22.6635 18.4688L26.8906 13.6598L26.1391 13L21.861 17.8671L19.6003 16.1719L19 16.9717Z" fill="#FF6F61"/>
<path d="M4.39773 30L5.02273 26.3494L22.9347 5.98011H8.34659L9.19886 0.90909H31.4716L30.8608 4.55966L12.9347 24.929H27.5227L26.6705 30H4.39773Z" fill="url(#paint0_linear_0_1)"/>
<defs>
<linearGradient id="paint0_linear_0_1" x1="9" y1="1" x2="26.5" y2="30" gradientUnits="userSpaceOnUse">
<stop stop-color="#FF6F61"/>
<stop offset="1" stop-color="#BE2E73"/>
</linearGradient>
</defs>
</svg>
